<?xml version="1.0" standalone="no"?>
<!DOCTYPE svg PUBLIC "-//W3C//DTD SVG 20010904//EN"
 "http://www.w3.org/TR/2001/REC-SVG-20010904/DTD/svg10.dtd">
<svg version="1.0" xmlns="http://www.w3.org/2000/svg"
 width="1280.000000pt" height="898.000000pt" viewBox="0 0 1280.000000 898.000000"
 preserveAspectRatio="xMidYMid meet">
<g transform="translate(0.000000,898.000000) scale(0.100000,-0.100000)"
fill="#000000" stroke="none">
<path d="M575 8957 c-3 -6 -13 -52 -24 -100 -15 -68 -28 -102 -59 -146 -22
-31 -61 -108 -86 -171 l-46 -115 -9 -230 -9 -230 25 -48 c23 -46 24 -61 30
-270 5 -219 5 -223 -20 -287 -54 -142 -167 -570 -202 -765 -23 -126 -49 -233
-70 -290 -31 -86 -34 -101 -49 -340 -9 -137 -16 -353 -16 -480 0 -166 -5 -256
-16 -325 -21 -119 -21 -127 0 -340 12 -126 33 -246 73 -429 l56 -253 116 -196
116 -196 75 -43 c67 -38 90 -60 205 -197 148 -176 185 -202 355 -252 93 -27
135 -51 145 -83 7 -23 45 -437 45 -493 0 -25 -13 -102 -30 -170 -16 -68 -47
-229 -69 -358 -35 -208 -52 -274 -141 -569 -118 -388 -166 -500 -258 -594 -43
-43 -63 -57 -86 -57 -16 0 -43 -9 -60 -19 -17 -10 -73 -31 -124 -47 -98 -29
-106 -36 -229 -185 -7 -8 -20 -50 -29 -92 l-15 -77 45 -59 45 -59 68 -6 c37
-4 143 -18 236 -32 l167 -26 169 57 c156 52 173 60 208 98 82 90 93 110 93
171 0 64 102 418 170 591 22 55 96 253 164 440 172 471 236 622 355 834 94
169 103 190 110 255 8 69 -6 143 -30 171 -14 14 -11 85 4 91 27 10 194 -74
289 -145 95 -71 97 -74 206 -245 99 -157 114 -188 160 -322 46 -136 53 -170
81 -384 53 -398 53 -451 9 -835 -20 -181 -38 -339 -38 -350 0 -19 -108 -151
-137 -168 -8 -5 -74 -19 -148 -31 -156 -26 -180 -40 -247 -139 -36 -53 -43
-71 -46 -123 -7 -111 1 -118 258 -225 52 -22 107 -45 121 -53 25 -13 48 -10
229 35 26 6 54 30 109 91 54 59 105 102 191 159 76 51 138 101 177 144 l60 66
6 187 c10 282 8 405 -8 536 l-15 119 71 456 c38 251 76 479 84 508 8 28 15 68
15 90 0 21 7 49 15 63 8 14 17 32 21 40 3 8 39 87 79 175 41 88 87 190 104
228 16 37 34 67 39 67 5 0 69 -11 143 -24 220 -40 218 -40 406 -7 95 17 206
31 247 31 72 0 74 -1 84 -28 5 -15 63 -103 128 -197 l119 -170 166 -111 c186
-125 265 -158 404 -168 72 -6 83 -9 107 -36 21 -22 26 -37 23 -57 -3 -16 -14
-84 -25 -153 -13 -86 -32 -156 -59 -226 -31 -80 -41 -120 -46 -195 -11 -139
-65 -285 -167 -447 -43 -69 -81 -128 -83 -130 -1 -2 -36 -8 -77 -13 -220 -31
-350 -85 -453 -189 -59 -59 -60 -61 -60 -117 l0 -57 87 -46 c48 -25 91 -54 97
-66 8 -18 21 -22 87 -27 123 -11 358 -7 500 7 129 13 132 14 195 56 35 24 65
44 67 45 7 6 115 295 232 622 96 267 154 412 223 555 61 127 108 240 136 330
42 136 42 138 25 168 -11 18 -34 36 -59 45 -22 8 -62 23 -89 32 -46 17 -55 26
-137 146 -82 120 -88 132 -93 190 -10 110 -13 266 -6 277 9 15 35 3 49 -24 7
-12 161 -157 343 -322 240 -217 362 -320 446 -376 l114 -76 212 -52 c116 -29
275 -72 353 -96 90 -28 161 -44 194 -44 46 0 62 -7 140 -56 84 -53 93 -62 195
-201 l106 -147 115 -290 c64 -160 119 -309 124 -331 4 -22 9 -79 10 -127 3
-79 1 -90 -20 -112 -14 -15 -47 -30 -88 -40 -47 -12 -83 -30 -124 -62 -83 -64
-85 -66 -114 -154 l-27 -80 44 -51 43 -51 255 7 c220 6 259 9 287 25 17 10 57
23 90 30 32 6 65 13 74 16 19 5 179 319 179 350 0 28 -124 451 -200 684 -57
176 -62 199 -101 475 -34 245 -44 296 -64 331 -33 57 -97 110 -162 134 -29 11
-77 32 -106 47 -28 15 -71 32 -94 38 -36 8 -75 42 -264 225 -307 297 -322 319
-428 658 l-80 254 -11 366 c-5 202 -10 386 -10 410 0 54 22 66 53 29 12 -14
46 -37 75 -52 29 -14 107 -66 172 -115 66 -49 184 -127 262 -174 140 -83 148
-86 353 -145 116 -33 287 -74 380 -91 102 -18 188 -39 215 -53 24 -12 48 -21
53 -19 12 4 119 -36 287 -108 80 -34 216 -88 302 -120 178 -66 163 -64 613
-80 334 -12 534 4 675 55 74 26 128 37 240 50 225 24 361 74 645 235 209 119
238 140 477 333 l255 207 188 273 189 272 23 135 c13 74 34 193 48 264 13 71
22 133 19 137 -12 20 -38 5 -119 -69 -76 -69 -109 -89 -278 -175 l-192 -96
-206 -21 -205 -21 -365 46 c-303 39 -381 52 -469 80 -62 20 -196 49 -325 70
-221 37 -938 201 -1024 234 -25 10 -80 21 -121 25 -54 5 -85 13 -110 30 -27
18 -57 25 -120 31 -50 4 -129 21 -190 41 -155 49 -467 124 -517 124 -23 0 -85
14 -135 31 -137 45 -401 77 -738 89 -239 9 -291 9 -400 -6 -118 -15 -133 -20
-255 -79 -71 -34 -141 -66 -155 -70 -14 -4 -55 -29 -91 -56 -54 -40 -74 -49
-107 -49 -42 0 -52 5 -252 146 -96 67 -293 164 -334 164 -17 0 -63 9 -101 20
-66 19 -83 20 -309 10 l-239 -10 -222 -55 -223 -54 -164 43 c-97 26 -192 57
-234 79 l-71 36 -179 -8 c-143 -6 -213 -4 -344 10 -91 10 -242 26 -335 35
l-171 18 -314 -63 c-173 -35 -324 -63 -335 -63 -29 0 -294 163 -301 185 -4 12
3 28 19 45 15 17 28 49 36 86 7 37 29 91 57 140 26 45 57 99 69 121 20 35 25
68 39 260 24 321 24 313 -31 428 -44 92 -46 99 -32 127 8 17 36 45 64 62 94
62 159 188 325 624 95 250 117 347 86 373 -12 10 -22 11 -43 2 -16 -6 -100
-15 -188 -21 l-160 -9 -145 -62 c-121 -51 -169 -78 -293 -166 l-148 -105 -87
7 c-48 3 -130 17 -182 30 -140 35 -488 88 -535 81 -22 -4 -56 -9 -76 -12 -51
-8 -91 15 -108 63 -21 57 -223 350 -413 598 -160 207 -203 252 -213 222z"/>
</g>
</svg>
