<?xml version="1.0" standalone="no"?>
<!DOCTYPE svg PUBLIC "-//W3C//DTD SVG 20010904//EN"
 "http://www.w3.org/TR/2001/REC-SVG-20010904/DTD/svg10.dtd">
<svg version="1.0" xmlns="http://www.w3.org/2000/svg"
 width="1280.000000pt" height="964.000000pt" viewBox="0 0 1280.000000 964.000000"
 preserveAspectRatio="xMidYMid meet">
<g transform="translate(0.000000,964.000000) scale(0.100000,-0.100000)"
fill="#000000" stroke="none">
<path d="M2845 9541 c-317 -128 -659 -342 -1015 -635 l-71 -59 -44 21 c-29 14
-70 53 -125 117 -82 95 -143 142 -190 145 -45 4 -51 1 -48 -22 2 -14 21 -31
57 -50 68 -34 126 -91 170 -164 41 -67 41 -68 -82 -118 -110 -45 -275 -128
-345 -173 -29 -18 -57 -31 -62 -28 -4 3 -16 27 -26 54 -13 38 -25 53 -48 63
-16 6 -56 36 -89 65 -63 56 -100 72 -126 56 -13 -9 -15 -28 -13 -119 7 -259
78 -457 271 -767 34 -54 61 -104 61 -112 0 -9 -16 -16 -42 -19 -81 -11 -299
-25 -311 -20 -7 2 -52 53 -100 113 -78 97 -91 120 -123 210 -37 108 -37 140
-1 166 19 13 19 17 7 40 -18 35 -99 115 -115 115 -34 0 -25 -199 15 -315 46
-133 130 -256 248 -361 68 -60 96 -114 88 -168 -3 -23 -22 -81 -43 -131 -29
-71 -37 -102 -36 -147 1 -32 -2 -58 -6 -58 -4 0 -155 92 -335 205 -180 113
-332 205 -338 205 -5 0 -8 -8 -6 -17 4 -22 296 -246 413 -317 164 -99 315
-224 315 -262 0 -21 -19 -17 -80 18 -147 84 -191 101 -204 79 -10 -16 80 -88
200 -159 l120 -71 78 -161 c43 -89 75 -167 73 -174 -3 -7 -49 -27 -103 -46
-102 -34 -220 -88 -211 -96 2 -2 81 15 175 38 l171 42 30 -28 c34 -32 47 -72
31 -91 -6 -7 -71 -37 -143 -66 -218 -86 -305 -137 -390 -228 -62 -66 -111
-169 -102 -211 8 -37 49 -70 86 -70 36 0 36 12 3 56 -38 49 -27 75 67 165 68
66 98 85 226 148 248 122 319 127 386 27 19 -29 75 -89 123 -132 49 -43 122
-111 164 -149 94 -89 120 -108 249 -180 167 -94 269 -187 242 -219 -19 -23
-142 -46 -243 -46 -118 0 -215 21 -301 63 l-67 33 0 -28 c0 -34 46 -68 136
-99 123 -44 273 -42 521 6 l141 27 67 -51 c36 -28 70 -51 76 -51 5 0 9 -14 9
-30 0 -39 -38 -63 -123 -80 l-62 -12 42 -21 c40 -20 43 -20 96 -3 93 29 134 8
240 -126 36 -46 80 -92 97 -103 16 -11 30 -25 30 -31 0 -6 -21 -26 -47 -45
-122 -86 -183 -165 -183 -233 0 -38 20 -56 63 -56 37 0 40 12 11 35 l-27 22
22 47 c14 29 39 57 65 75 45 31 209 101 237 101 9 0 47 -14 84 -31 77 -35 177
-59 247 -59 28 0 60 -8 80 -19 18 -11 51 -23 73 -26 45 -8 85 -30 85 -47 0 -6
-25 -37 -55 -69 -41 -42 -55 -65 -55 -86 0 -86 74 -84 267 5 70 33 146 65 168
71 83 23 219 7 232 -26 4 -11 -4 -25 -25 -43 -36 -30 -38 -39 -16 -81 13 -27
19 -30 46 -24 45 10 119 45 243 115 135 76 225 114 237 102 5 -5 -31 -58 -87
-128 -107 -132 -162 -233 -171 -310 -6 -46 -4 -53 17 -68 38 -26 79 -20 129
20 24 19 116 101 203 182 242 224 342 292 501 341 102 31 320 29 332 -4 3 -7
-6 -29 -20 -50 -33 -48 -32 -60 2 -92 69 -66 118 -73 432 -63 130 4 137 3 186
-22 28 -15 127 -50 220 -78 93 -29 202 -67 243 -86 90 -41 181 -108 181 -132
-1 -10 -67 -67 -166 -142 -92 -69 -171 -128 -178 -131 -6 -4 -52 4 -101 16
-143 36 -303 49 -528 41 -198 -7 -198 -7 -280 -42 -45 -20 -206 -87 -357 -149
-151 -62 -298 -123 -325 -136 -37 -17 -99 -72 -245 -219 -207 -207 -277 -262
-395 -307 -92 -34 -131 -62 -259 -183 -134 -126 -187 -155 -276 -153 -36 1
-76 3 -90 5 -24 3 -25 1 -25 -52 0 -53 1 -56 35 -72 29 -15 63 -18 205 -18
246 0 323 -11 695 -100 239 -57 390 -85 513 -95 48 -4 89 -11 92 -15 3 -5 -2
-101 -10 -215 -27 -372 -7 -443 274 -985 106 -204 161 -371 161 -490 0 -68 14
-100 44 -100 13 0 28 6 33 13 6 6 13 71 16 142 7 156 26 250 66 327 16 32 41
111 56 175 39 173 48 199 150 418 119 255 148 360 114 411 -15 23 -19 47 -19
119 -1 59 -6 99 -15 115 -8 14 -14 37 -15 51 0 15 -14 53 -32 85 -66 123 -70
134 -64 159 4 14 40 62 81 107 100 108 147 181 290 453 67 127 136 252 153
279 18 28 32 59 32 70 0 12 11 44 24 71 34 75 111 138 246 202 63 30 140 70
170 88 30 18 67 35 81 39 49 11 132 -13 269 -78 74 -36 152 -70 173 -76 93
-29 196 -165 232 -305 15 -61 20 -212 7 -231 -4 -6 -61 -38 -127 -71 -619
-310 -1041 -895 -1130 -1564 -13 -100 57 -536 133 -824 44 -171 47 -187 48
-316 0 -117 3 -141 20 -170 11 -19 29 -35 40 -37 38 -5 55 30 63 126 8 88 9
92 58 159 69 95 274 397 295 436 10 18 30 61 45 97 57 135 123 229 338 480 78
91 163 194 189 230 137 187 200 349 209 541 3 54 10 87 24 110 59 98 70 203
43 431 -11 98 -20 215 -19 260 1 102 27 213 50 213 9 0 46 -36 81 -80 94 -116
296 -333 363 -391 l58 -49 -6 -71 c-4 -51 -14 -88 -35 -130 -66 -132 -131
-338 -163 -524 -20 -113 -18 -423 4 -532 22 -111 59 -222 106 -323 31 -67 39
-96 45 -170 9 -122 37 -252 101 -473 92 -319 135 -514 135 -613 0 -25 36 -69
57 -69 18 0 40 34 48 75 16 94 71 235 155 397 199 388 299 596 329 685 51 153
65 409 36 684 -39 372 -46 411 -75 449 -15 19 -38 69 -50 110 -26 90 -81 211
-157 343 -48 84 -63 103 -112 134 -61 39 -298 275 -365 363 -23 30 -71 76
-106 102 -229 167 -238 213 -76 375 166 166 230 172 481 46 80 -41 216 -125
427 -264 186 -123 329 -200 443 -238 83 -27 144 -41 460 -101 140 -27 273 -71
352 -118 60 -34 64 -39 90 -107 173 -456 341 -738 567 -953 183 -173 342 -262
586 -327 69 -18 157 -42 195 -53 39 -11 144 -27 235 -36 91 -9 183 -22 205
-27 22 -6 153 -14 290 -18 220 -7 257 -11 310 -30 100 -37 100 -37 130 3 27
36 27 37 9 57 -11 12 -35 29 -55 40 -21 10 -96 85 -180 180 -277 312 -406 477
-511 655 -36 61 -98 139 -195 246 -229 250 -315 320 -447 359 -39 11 -82 27
-96 35 -86 48 -141 68 -218 79 -48 8 -134 21 -191 29 -57 9 -127 27 -156 39
-40 19 -62 23 -108 19 -45 -3 -63 0 -91 16 -20 12 -64 26 -98 32 -35 6 -189
38 -343 70 -155 33 -337 67 -405 75 -68 9 -131 20 -140 25 -8 4 -39 7 -68 7
-46 -2 -57 2 -76 24 -13 15 -38 29 -58 33 -52 10 -116 46 -205 117 -43 34
-105 75 -139 90 -33 15 -66 35 -73 43 -24 28 -123 83 -238 131 -118 49 -193
95 -193 119 0 25 108 55 200 56 68 0 155 -18 330 -69 183 -54 242 -64 347 -60
84 4 97 7 172 47 45 23 107 49 137 57 30 8 79 27 107 43 29 17 140 76 247 132
314 165 435 253 528 386 41 58 170 192 237 246 94 77 242 160 392 221 72 30
78 35 81 64 4 35 -25 73 -56 73 -10 0 -168 -30 -352 -66 l-335 -65 -360 -10
c-568 -15 -719 -29 -899 -86 -202 -64 -340 -166 -456 -338 -22 -31 -36 -68
-41 -100 -4 -32 -21 -74 -46 -115 l-40 -64 -94 -36 c-172 -65 -276 -134 -529
-351 -215 -183 -205 -177 -280 -177 -57 0 -75 6 -150 45 -100 53 -219 136
-307 217 -72 66 -72 71 6 110 33 17 71 25 136 29 187 12 376 88 554 222 55 42
203 176 328 298 126 122 258 249 293 282 43 41 90 101 140 180 59 96 99 145
195 240 124 124 210 184 338 236 64 25 84 48 68 77 -25 47 -33 46 -160 -17
-217 -109 -378 -168 -863 -317 -359 -109 -543 -173 -698 -241 -323 -143 -349
-173 -434 -500 -66 -253 -116 -336 -236 -391 l-55 -26 -65 35 c-36 20 -132 78
-215 131 -82 52 -169 105 -191 116 -23 12 -51 37 -62 56 -29 49 -70 72 -175
96 -93 21 -162 52 -172 78 -8 21 87 162 128 190 18 12 42 22 52 22 11 0 52
-32 91 -71 56 -56 76 -70 92 -65 11 4 66 54 122 113 94 97 107 107 159 120 61
16 80 26 157 84 28 22 56 39 61 39 6 0 30 -16 53 -35 23 -19 47 -35 54 -35 6
0 32 21 56 46 62 63 182 153 293 217 132 78 374 216 430 245 66 35 113 92 178
214 38 72 73 122 117 166 34 35 62 67 62 72 0 4 -7 13 -15 20 -8 7 -15 24 -15
37 0 29 -35 83 -54 83 -17 0 -42 29 -50 57 -8 24 11 68 67 163 56 95 232 227
432 325 170 83 309 122 471 130 46 2 85 8 87 12 5 17 -82 35 -173 35 -157 -1
-299 -52 -569 -206 -73 -42 -138 -76 -142 -76 -24 0 5 72 64 160 17 25 112
126 212 225 100 99 201 209 225 245 24 35 76 99 115 141 39 42 79 92 88 111
16 35 23 78 12 78 -3 0 -34 -30 -68 -67 -192 -210 -337 -347 -337 -319 0 2 23
53 51 112 29 64 66 126 88 149 23 24 41 54 45 75 4 19 26 60 50 91 50 64 76
110 76 134 0 28 -19 15 -66 -47 -123 -163 -323 -368 -434 -445 -25 -17 -42 -7
-66 38 -21 41 -17 77 15 170 16 46 32 95 35 109 3 14 59 101 124 193 302 429
432 722 448 1007 7 118 -5 221 -37 325 -17 57 -30 78 -69 116 -106 100 -218
139 -415 144 -130 4 -134 3 -55 -5 151 -17 284 -42 327 -62 116 -55 203 -214
203 -374 0 -180 -71 -446 -171 -643 -116 -228 -295 -422 -477 -515 -28 -15
-33 -15 -38 -2 -11 28 58 270 147 520 49 137 89 254 89 260 0 6 -18 -8 -40
-32 -44 -48 -68 -50 -104 -9 -20 24 -18 71 8 187 9 36 11 69 6 74 -4 4 -25 3
-46 -4 -26 -9 -123 -14 -309 -15 -252 -1 -278 -3 -385 -28 -63 -14 -126 -29
-139 -33 -17 -5 -22 -3 -19 6 2 7 54 38 114 69 61 31 119 62 128 70 10 8 31
41 47 74 23 45 29 69 27 105 -5 71 -23 77 -243 77 -178 0 -182 -1 -432 -53
l-252 -53 -93 29 c-120 39 -292 77 -443 98 -89 13 -205 18 -452 20 -183 1
-337 5 -343 9 -19 12 -10 37 25 76 34 38 39 65 18 101 -6 11 -74 28 -115 28
-45 0 -56 15 -32 41 16 18 17 21 1 36 -15 15 -25 15 -145 -6 -263 -45 -658
-151 -1087 -291 -132 -43 -263 -83 -290 -89 -28 -5 -89 -26 -135 -46 -86 -36
-192 -66 -213 -60 -7 2 -24 6 -39 9 -28 6 -88 52 -88 67 0 11 13 17 430 173
464 175 685 245 943 301 73 16 97 28 80 38 -5 3 -46 -1 -93 -8 -332 -49 -664
-149 -1175 -352 l-290 -115 -310 -28 c-309 -29 -564 -58 -745 -85 -65 -10 -98
-11 -105 -4 -17 18 131 149 276 245 73 49 157 107 186 131 28 23 142 88 252
143 111 55 201 102 201 105 0 7 6 9 -125 -44z"/>
<path d="M8105 9386 c-43 -8 -61 -16 -63 -28 -3 -17 -1 -17 35 -1 21 9 63 22
93 29 71 16 18 16 -65 0z"/>
</g>
</svg>
